<?xml version="1.0" encoding="UTF-8"?><svg id="_レイヤー_1" xmlns="http://www.w3.org/2000/svg" viewBox="0 0 327.04 37.75"><defs><style>.cls-1{isolation:isolate;}.cls-2{fill:#3b3b3b;stroke-width:0px;}</style></defs><g id="komidasi" class="cls-1"><g class="cls-1"><path class="cls-2" d="M0,30.52V.24h13.28v1.64H1.68v28.64H0Z"/><path class="cls-2" d="M40.72,20.68c-.08.24-.36.32-.72.32-.4.72-1.04,1.76-1.6,2.64h11.36v1.68H13.24v-1.68h10.88c-.36-.96-.92-2.12-1.52-3l1.24-.4h-4.24v-7.12h23.76v7.12h-3.88l1.24.44ZM30.4,9.04v-3.44h-15.92v-1.68h15.92V.72l2.72.2c-.04.24-.24.44-.72.48v2.52h16.32v1.68h-16.32v3.44h13.36v1.64h-28.32v-1.64h12.96ZM18.88,37.75v-9.68h25.24v9.64h-1.96v-1.4h-21.36v1.44h-1.92ZM42.16,29.68h-21.36v5.04h21.36v-5.04ZM21.48,14.68v4h19.92v-4h-19.92ZM36.36,23.64c.64-1,1.36-2.4,1.84-3.4h-13.76c.76,1.04,1.44,2.44,1.76,3.4h10.16Z"/><path class="cls-2" d="M55.16,35.52c-1.32-2.84-1.8-8.48-1.8-13.68s.84-12,2.24-18.88l3.04.64c-.08.36-.44.68-1.04.68-1.44,5.6-2.24,12.96-2.24,17.56,0,3.32.04,6.4.44,8,.96-2.72,2.72-6.76,3.6-8.76l1.52,1.08c-1.36,2.96-4.28,9.32-4.28,11.08,0,.56.16,1.16.48,1.96l-1.96.32ZM70.24,12.64c1.24,0,3-.08,4.24-.16-.16-3.56-.28-6.92-.36-9.88l3.2.12c0,.4-.4.72-1.04.84.04,2.56.16,5.56.24,8.76,3.32-.32,5.96-.88,8.16-1.68l.36,2.08c-1.96.68-4.84,1.24-8.4,1.56.16,4.72.4,9.44.48,12,3.12,1.28,6.32,3.32,8.4,5.24l-1.2,1.84c-1.76-1.76-4.32-3.6-7.12-4.84.04,3.64-.36,7.64-6.32,7.64-4.6,0-7.76-2.08-7.76-5.56,0-4,4.16-5.64,7.72-5.64,1.4,0,2.88.24,4.28.64-.12-2.68-.36-6.92-.56-11.2-1.28.08-3.08.16-4.28.16h-6.32v-1.92h6.28ZM75.28,27.6c-1.4-.48-2.88-.8-4.36-.8-2.6,0-5.88.92-5.88,3.76,0,2.48,2.64,3.72,5.88,3.72s4.4-1.52,4.4-5.2l-.04-1.48ZM83.24,9.76c-.92-1.88-2.6-4.28-4.64-6.12l1.16-.88c2.08,1.96,3.8,4.2,4.8,6.16l-1.32.84ZM87.68,6.92c-1.08-2.08-2.68-4.12-4.64-6l1.2-.92c2.04,2.04,3.64,4,4.72,6.12l-1.28.8Z"/><path class="cls-2" d="M116.76,2.2c0,.4-.24.56-.88.72.16,2.96.32,6.28.4,9.44,3.28-.52,6.4-1.04,8.84-1.4l.2,2.04c-2.52.28-5.68.72-9,1.28,0,.84.04,1.68.04,2.48,0,5.4,0,10.24-4.6,10.24-1.6,0-4.04-.64-6.28-1.8.16-.52.36-1.2.48-1.8,2.4,1.24,4.48,1.68,5.52,1.68,1.12,0,2.16-.72,2.48-2.12.4-2.2.36-6.08.32-8.36-4.92.8-10.08,1.68-13.96,2.36.08,3.84.16,7.56.36,9.96.44,6.32,3.44,6.92,9.28,6.92,3.4,0,7.92-.24,10.84-.6l.12,2.08c-3,.28-7.52.44-11.08.44-5.72,0-10.56-.44-11.2-8.68-.2-2.36-.28-5.92-.36-9.8-2.52.44-5.84,1.08-8.04,1.52l-.32-2c2.16-.36,5.56-.96,8.32-1.4l-.12-10.4,3.16.32c-.04.44-.4.64-1,.72,0,2.6,0,5.84.04,9l13.92-2.36c-.12-3.44-.28-7.28-.52-10.72l3.04.24Z"/><path class="cls-2" d="M136.72,18.6c2.8-1.48,7.32-2.56,10.72-2.56,6.48,0,10.4,3.68,10.4,9.44,0,7.24-6.4,11.24-14.16,11.24-5.24,0-8.76-2-8.76-5.36,0-2.88,2.8-5.16,6.4-5.16,4.56,0,7.56,3.88,8.12,7.56,3.68-1.32,6.28-4.12,6.28-8.24,0-4.64-3.28-7.6-8.68-7.6-6.2,0-12.4,2.84-14.96,5.36-1.24,1.2-2.8,2.88-3.88,4.2l-1.52-1.52c3.84-4.08,15.76-15.52,21.2-20.64-2.4.36-10.8.64-15.84.84-.08.24-.44.52-.76.6l-.32-2.68c5.52-.04,15.52-.4,18.52-.84l.56-.28,1.8,2.04c-.24.2-.56.32-.92.4-3.08,2.56-11.12,10.2-14.2,13.16v.04ZM143.48,34.84c1.32,0,2.8-.2,4-.52-.44-3.36-2.92-6.32-6.32-6.32-2.32,0-4.44,1.24-4.44,3.32,0,2.64,3.68,3.52,6.76,3.52Z"/><path class="cls-2" d="M173.04,7.48v30.23h-13.24v-1.64h11.6V7.48h1.64Z"/><path class="cls-2" d="M209.8,30.83l-1.4,1.36-11.32-11.32-11.32,11.32-1.4-1.36,11.36-11.36-11.36-11.28,1.44-1.4,11.28,11.32,11.32-11.32,1.4,1.36-11.32,11.32,11.32,11.36Z"/><path class="cls-2" d="M221.6,30.52V.24h13.28v1.64h-11.6v28.64h-1.68Z"/><path class="cls-2" d="M246.24,15.6c-.76-.52-2.16-1.32-4.2-1.32-2.64,0-4.04,1.68-4.04,3.6,0,2.16,1.4,3.08,4.28,4.32,3.48,1.4,5.56,3.16,5.56,6.4,0,3.96-3.04,6.28-7.36,6.28-2.12,0-4.08-.6-5.52-1.48l.84-2c1.12.68,2.88,1.48,4.8,1.48,3.24,0,4.8-1.76,4.8-3.96s-1.32-3.48-4.36-4.72c-3.52-1.4-5.48-3.36-5.48-5.96,0-3.2,2.56-5.96,6.76-5.96,2,0,3.68.6,4.84,1.36l-.92,1.96Z"/><path class="cls-2" d="M266.32,33.52c-.96.52-3.16,1.36-6.72,1.36-6.24,0-10.04-4.52-10.04-10.88,0-7.08,4-11.72,9.6-11.72,6.88,0,8.32,6.48,8.36,9.84,0,.6-.04.96-.08,1.44h-15.44c0,6.72,3.68,9.32,7.92,9.32,2.96,0,4.56-.6,5.8-1.2l.6,1.84ZM265,21.64c.04-3.08-1.24-7.36-6.08-7.36-4.48,0-6.44,4.12-6.8,7.36h12.88Z"/><path class="cls-2" d="M273.24,34.44h-2.48V2.48h2.48v31.96Z"/><path class="cls-2" d="M280.72,34.44h-2.48V2.48h2.48v31.96Z"/><path class="cls-2" d="M300.8,33.52c-.96.52-3.16,1.36-6.72,1.36-6.24,0-10.04-4.52-10.04-10.88,0-7.08,4-11.72,9.6-11.72,6.88,0,8.32,6.48,8.36,9.84,0,.6-.04.96-.08,1.44h-15.44c0,6.72,3.68,9.32,7.92,9.32,2.96,0,4.56-.6,5.8-1.2l.6,1.84ZM299.48,21.64c.04-3.08-1.24-7.36-6.08-7.36-4.48,0-6.44,4.12-6.8,7.36h12.88Z"/><path class="cls-2" d="M314.48,14.76c-.32-.08-.64-.08-1.08-.08-3.6,0-5.68,3.88-5.68,7.8v11.96h-2.48v-15.24c0-2.16-.04-4.28-.16-6.44h2.24l.08,4.32h.16c.92-2.68,3.16-4.8,6-4.8.32,0,.6.08.92.12v2.36Z"/><path class="cls-2" d="M327.04,7.48v30.23h-13.24v-1.64h11.6V7.48h1.64Z"/></g></g></svg>