<?xml version="1.0" encoding="UTF-8"?><svg id="_レイヤー_1" xmlns="http://www.w3.org/2000/svg" viewBox="0 0 1359.21 289.69"><defs><style>.cls-1{isolation:isolate;}.cls-2{fill:#3b3b3b;stroke-width:0px;}</style></defs><g id="_喜ばセラー" class="cls-1"><g class="cls-1"><path class="cls-2" d="m279.12,194.26H47.25c-10.88,0-27.97,1.24-39.79,3.73l-7.46-13.37c23.31,1.86,46,2.18,51.6,2.18h102.88c5.91-12.12,9.64-23.31,13.68-37.92h-70.87c20.83,10.57,23.62,18.03,23.62,24.56,0,5.91-2.49,10.57-9.32,10.57-8.08,0-8.7-3.73-11.81-14.92-3.73-14.61-7.77-18.34-9.64-20.2h-14.92c-.31,5.91-.62,10.88-11.19,10.88-5.91,0-6.53-2.8-6.53-5.91,0-2.49.31-5.28.31-6.22.31-4.35.93-10.88.93-22.38,0-9.32,0-24.55-2.18-32.95l20.2,8.08h124.33l5.28-7.46c1.55-2.18,2.18-3.11,4.04-3.11,1.24,0,2.49.93,4.04,1.86l10.57,8.08c1.55,1.24,2.49,3.11,2.49,4.66,0,2.49-.62,3.11-7.77,9.32,0,5.28,1.55,30.46,1.55,32.01,0,9.01-10.88,9.95-12.43,9.95-5.28,0-5.28-2.8-4.97-6.84h-25.8l13.05,7.15c.31.31,1.55.93,1.55,2.18,0,2.49-4.97,3.42-10.88,4.66-2.8,3.42-15.23,16.16-23,23.93h82.99l11.81-16.78c2.49-3.42,2.8-4.04,4.35-4.04,2.18,0,4.35,2.49,5.91,4.04l16.78,16.16c1.87,1.87,3.11,2.8,3.11,4.97,0,2.8-2.8,3.11-4.66,3.11Zm-12.74-148.26h-117.18v23.93h62.48l7.15-8.7c1.55-2.18,2.8-4.04,4.35-4.04,1.24,0,2.49.62,5.91,3.11l12.74,9.01c1.24.62,3.11,2.49,3.11,4.66,0,2.8-2.49,3.42-4.66,3.42H84.23c-10.88,0-28.28,1.24-40.1,3.42l-7.15-13.37c23.31,1.87,45.69,2.49,51.6,2.49h43.83v-23.93H56.88c-11.19,0-28.28,1.24-40.1,3.42l-7.46-13.37c23.31,1.86,46,2.49,51.91,2.49h71.18c-.62-20.51-.93-24.87-4.35-38.54l28.91,9.32c1.24.62,2.8,1.87,2.8,3.11,0,2.18-.62,2.8-10.26,10.88,0,4.66,0,5.59-.31,15.23h82.68l11.5-13.05c3.11-3.42,3.42-3.73,4.66-3.73,1.87,0,4.97,2.8,5.91,3.42l13.99,12.74c1.87,1.55,3.11,2.8,3.11,4.66,0,2.8-2.8,3.42-4.66,3.42Zm-41.96,187.74c0,6.53,1.86,35.75,1.86,41.65,0,3.11-.62,4.97-1.86,6.53-2.49,2.18-8.08,4.97-11.5,4.97-3.73,0-5.28-1.55-4.97-13.68H72.42c-.31,1.55-.31,8.08-.62,9.64-.93,5.91-7.77,6.84-12.74,6.84-1.86,0-4.66,0-4.66-5.59,0-1.55,1.24-36.68,1.24-43.2,0-4.97-.31-14.61-1.24-30.15l20.83,10.26h131.17l7.15-6.84c.62-.62,2.8-2.49,4.66-2.49,1.55,0,2.49.93,4.04,2.18l9.32,7.15c2.18,1.55,3.11,2.8,3.11,4.35,0,2.8-4.35,4.97-10.26,8.39Zm-16.47-5.28H72.42v37.3h135.52v-37.3Zm-3.73-120.6H75.53v33.57h128.68v-33.57Z"/><path class="cls-2" d="m372.67,151.99c-2.18,10.57-12.12,56.88-13.99,66.52-1.55,7.46-2.49,13.99-2.49,18.03,0,3.42,1.87,19.27,1.87,22.69,0,4.97-3.42,7.46-7.46,7.46-13.37,0-24.55-34.5-24.55-75.22,0-25.8,2.8-47.56,6.22-64.65,2.18-11.5,10.57-53.46,10.57-62.79,0-15.23-6.22-20.2-12.12-24.87,2.18-.93,3.73-1.24,5.59-1.24,15.23,0,27.97,15.85,27.97,24.55,0,3.11-.93,5.6-3.11,10.88-14.3,34.81-22.69,75.22-22.69,108.17,0,4.66.93,38.54,6.22,38.54,1.24,0,1.86-1.24,2.18-2.18,6.22-18.65,16.78-48.49,23.31-67.14l2.49,1.24Zm162.56-66.83c5.59-1.55,6.22-1.87,7.46-1.87,6.22,0,14.92,3.42,14.92,9.32,0,3.73-3.42,5.28-5.59,6.22-3.11.93-20.83,4.66-49.73,8.08.62,15.85,4.66,85.79,5.28,100.08,22.69,8.39,53.15,21.45,53.15,38.23,0,3.73-2.8,6.53-6.84,6.53s-7.15-.31-22.38-11.81c-11.19-8.7-18.96-12.43-25.18-15.23-4.97,14.3-12.12,34.19-49.42,34.19-25.8,0-48.18-12.74-48.18-30.46,0-6.53,4.04-29.22,51.6-29.22,16.47,0,25.49,1.87,33.26,3.73v-7.77c0-28.91-2.8-65.58-3.42-86.72-6.22.62-24.87,2.49-33.26,2.49-15.23,0-41.03-4.97-48.8-22.07,12.12,7.15,27.04,9.32,34.19,9.32,8.39,0,26.42-1.24,47.25-3.73-1.55-46.62-1.55-49.42-2.8-54.7-1.87-6.84-7.46-8.39-20.2-11.81,12.74-5.59,13.99-6.22,17.1-6.22,5.28,0,24.55,6.84,24.55,16.16,0,3.11-.31,3.42-2.18,9.95-4.66,15.54-4.35,36.06-4.04,44.76,8.08-1.24,17.72-3.11,33.26-7.46Zm-79.57,125.57c-18.03,0-36.37,7.46-36.37,18.96s18.34,15.23,34.19,15.23c32.01,0,36.37-18.96,37.92-27.04-10.26-5.28-22.38-7.15-35.74-7.15Zm108.17-141.42c0,1.24-.62,6.84-5.59,6.84-3.11,0-5.59-2.49-10.57-9.32-4.97-7.15-21.76-23.93-33.26-35.43,19.27,1.87,49.42,17.41,49.42,37.92Zm29.22-20.51c0,3.73-1.55,7.46-5.91,7.46-4.04,0-6.84-3.42-13.05-11.5-4.66-5.91-15.85-18.03-36.99-32.64,24.24-1.55,55.95,18.65,55.95,36.68Z"/><path class="cls-2" d="m771.45,168.15c10.26-11.81,28.91-35.74,41.96-60.92-7.15,2.18-13.68,4.04-72.42,22.07-4.35,1.24-22.69,6.84-26.42,8.08-.31,9.01-.62,23.31-.62,38.54,0,57.19.93,64.96,38.85,64.96,15.23,0,34.81-2.49,56.57-7.77,2.8-.62,6.22-1.55,9.33-1.55,4.35,0,15.54,2.18,18.34,4.66.93,1.24,2.49,3.11,2.49,5.91,0,4.35-3.73,6.22-6.84,7.15-5.59,1.87-37.92,5.59-71.49,5.59-18.96,0-38.54-.31-50.66-11.81-9.32-8.39-11.5-14.92-11.5-61.23,0-13.68,0-24.87.62-39.79-37.3,11.5-37.61,11.81-57.19,22.38-1.86.93-4.97,2.49-8.7,2.49-4.97,0-10.26-4.66-13.99-8.08-10.26-10.26-10.26-16.47-10.26-20.51,0-2.8,0-4.97,1.24-11.5,13.68,18.03,18.65,18.96,23.93,18.96,9.32,0,22.69-3.73,65.58-15.85,0-5.28.62-17.09.62-32.95,0-9.32,0-38.85-3.42-44.76-.31-.93-6.22-9.95-23-13.99,7.46-3.42,12.12-5.6,20.83-5.6,14.61,0,29.84,8.7,29.84,16.78,0,.93-1.86,7.15-3.11,10.88-3.73,11.81-5.91,50.35-6.84,65.27,8.7-2.49,46.62-13.68,54.39-15.85,37.61-11.19,38.23-11.81,46.93-19.27,3.11-2.49,4.66-3.42,6.53-3.42,6.22,0,28.6,19.89,28.6,25.49,0,4.66-4.04,5.59-8.08,5.59-.93,0-5.59-.62-6.53-.31-2.18.31-4.35,1.55-8.7,5.91-21.45,20.51-31.7,28.6-55.01,46.31l-1.87-1.87Z"/><path class="cls-2" d="m916.91,273.83c77.39-33.88,125.88-112.52,133.34-158.52-23.93,1.86-112.83,10.26-126.82,19.27-5.91,4.04-6.53,4.35-8.7,4.35-8.08,0-29.22-18.03-29.22-34.5,0-2.49.31-4.97,1.55-9.64,7.46,11.81,18.96,20.2,33.57,20.2,11.5,0,115.31-8.39,123.4-10.26,2.8-.62,5.59-1.55,13.37-8.39,1.87-1.87,3.11-2.49,4.35-2.49,3.42,0,24.56,15.54,24.56,21.45,0,3.11-.93,3.42-9.95,7.77-6.22,3.11-6.53,3.73-10.26,13.68-2.8,6.84-27.04,65.89-72.11,102.88-22.07,18.34-48.18,31.39-76.46,36.37l-.62-2.18Zm31.7-218.82c15.54,0,63.41-4.97,75.84-9.32,9.95-3.73,11.19-4.04,14.3-4.04,4.97,0,21.76,1.86,21.76,9.95s-8.7,8.39-32.64,9.95c-14.61.93-85.48,8.39-92.62,8.39-6.22,0-21.14-6.84-23.62-29.53,13.99,11.81,18.65,14.61,36.99,14.61Z"/><path class="cls-2" d="m1149.4,140.18c4.35,1.24,7.46,1.24,34.81,1.24,5.59,0,108.48-.62,130.23-3.11,5.91-.62,6.22-.62,9.95-2.18,1.86-.62,3.73-.93,5.91-.93,1.55,0,28.91,3.11,28.91,12.12,0,7.46-8.08,7.46-16.47,7.46-4.66,0-33.88-1.87-40.41-1.87-18.65,0-106.61,1.55-121.84,3.11-3.73.31-12.74,1.24-21.45,4.35-5.91,2.18-7.46,2.8-9.64,2.8s-4.04,0-11.5-9.01c-2.18-2.49-9.01-10.57-9.01-22.38,0-4.35.31-8.08,2.49-12.12,4.04,11.19,10.88,18.65,18.03,20.51Z"/></g></g></svg>