<?xml version="1.0" encoding="UTF-8"?><svg id="_レイヤー_2" xmlns="http://www.w3.org/2000/svg" viewBox="0 0 1343.34 448.22"><defs><style>.cls-1{fill:#4d4d4d;stroke-width:0px;}</style></defs><path class="cls-1" d="m53.86,80.9L0,4.12h45.83l27.42,40.35L100.47,4.12h45.83l-54.06,76.78v70.9h-38.39v-70.9Z"/><path class="cls-1" d="m162.96,77.96c0-10.97,2.02-21.19,6.07-30.66,4.04-9.46,9.66-17.72,16.84-24.77,7.18-7.05,15.76-12.57,25.75-16.55,10-3.98,20.99-5.98,33.01-5.98s22.85,2,32.9,5.98,18.71,9.5,25.95,16.55c7.25,7.05,12.9,15.31,16.95,24.77,4.05,9.47,6.07,19.69,6.07,30.66s-2.02,21.18-6.07,30.65c-4.05,9.46-9.69,17.72-16.95,24.77-7.25,7.05-15.9,12.57-25.95,16.55-10.05,3.98-21.02,5.98-32.9,5.98s-23.01-2-33.01-5.98c-9.99-3.98-18.57-9.5-25.75-16.55-7.19-7.05-12.8-15.31-16.84-24.77-4.05-9.47-6.07-19.69-6.07-30.65Zm40.15,0c0,5.87,1.11,11.29,3.33,16.25s5.22,9.27,9.01,12.93c3.79,3.65,8.2,6.49,13.23,8.52s10.34,3.04,15.96,3.04,10.94-1.01,15.97-3.04,9.46-4.87,13.32-8.52c3.85-3.66,6.88-7.97,9.11-12.93,2.22-4.96,3.32-10.38,3.32-16.25s-1.1-11.29-3.32-16.26c-2.23-4.96-5.26-9.27-9.11-12.92-3.85-3.66-8.29-6.49-13.32-8.53-5.03-2.02-10.35-3.04-15.97-3.04s-10.93,1.02-15.96,3.04c-5.03,2.03-9.44,4.87-13.23,8.53-3.79,3.65-6.79,7.96-9.01,12.92-2.22,4.97-3.33,10.38-3.33,16.26Z"/><path class="cls-1" d="m483.39,151.8h-47.79l-36.62-56.8v56.8h-38.4V4.12h59.74c8.22,0,15.41,1.21,21.54,3.63,6.14,2.41,11.2,5.71,15.18,9.89,3.98,4.18,6.98,9.02,9.01,14.5s3.04,11.36,3.04,17.63c0,11.23-2.71,20.34-8.13,27.32-5.42,6.98-13.41,11.72-23.99,14.2l46.42,60.52Zm-84.42-81.67h7.25c7.57,0,13.39-1.57,17.43-4.71,4.04-3.13,6.07-7.63,6.07-13.51s-2.03-10.38-6.07-13.51c-4.05-3.14-9.86-4.71-17.43-4.71h-7.25v36.44Z"/><path class="cls-1" d="m502.58,77.96c0-10.97,2.02-21.19,6.07-30.66,4.04-9.46,9.66-17.72,16.84-24.77,7.18-7.05,15.76-12.57,25.75-16.55,10-3.98,20.99-5.98,33.01-5.98s22.85,2,32.9,5.98c10.05,3.98,18.71,9.5,25.95,16.55,7.25,7.05,12.9,15.31,16.95,24.77,4.05,9.47,6.07,19.69,6.07,30.66s-2.02,21.18-6.07,30.65c-4.05,9.46-9.69,17.72-16.95,24.77-7.25,7.05-15.9,12.57-25.95,16.55s-21.02,5.98-32.9,5.98-23.01-2-33.01-5.98c-9.99-3.98-18.57-9.5-25.75-16.55-7.19-7.05-12.8-15.31-16.84-24.77-4.05-9.47-6.07-19.69-6.07-30.65Zm40.15,0c0,5.87,1.11,11.29,3.33,16.25s5.22,9.27,9.01,12.93c3.79,3.65,8.2,6.49,13.23,8.52s10.34,3.04,15.96,3.04,10.94-1.01,15.97-3.04,9.46-4.87,13.32-8.52c3.85-3.66,6.88-7.97,9.11-12.93,2.22-4.96,3.32-10.38,3.32-16.25s-1.1-11.29-3.32-16.26c-2.23-4.96-5.26-9.27-9.11-12.92-3.85-3.66-8.29-6.49-13.32-8.53-5.03-2.02-10.35-3.04-15.97-3.04s-10.93,1.02-15.96,3.04c-5.03,2.03-9.44,4.87-13.23,8.53-3.79,3.65-6.79,7.96-9.01,12.92-2.22,4.97-3.33,10.38-3.33,16.26Z"/><path class="cls-1" d="m738.61,65.03l46.81-60.92h47.39l-58.56,69.92,64.05,77.76h-49.76l-49.94-64.05v64.05h-38.4V4.12h38.4v60.92Z"/><path class="cls-1" d="m858.47,77.96c0-10.97,2.02-21.19,6.07-30.66,4.04-9.46,9.66-17.72,16.84-24.77,7.18-7.05,15.76-12.57,25.75-16.55,10-3.98,20.99-5.98,33.01-5.98s22.85,2,32.9,5.98c10.05,3.98,18.71,9.5,25.95,16.55,7.25,7.05,12.9,15.31,16.95,24.77,4.05,9.47,6.07,19.69,6.07,30.66s-2.02,21.18-6.07,30.65c-4.05,9.46-9.69,17.72-16.95,24.77-7.25,7.05-15.9,12.57-25.95,16.55s-21.02,5.98-32.9,5.98-23.01-2-33.01-5.98c-9.99-3.98-18.57-9.5-25.75-16.55-7.19-7.05-12.8-15.31-16.84-24.77-4.05-9.47-6.07-19.69-6.07-30.65Zm40.15,0c0,5.87,1.11,11.29,3.33,16.25s5.22,9.27,9.01,12.93c3.79,3.65,8.2,6.49,13.23,8.52s10.34,3.04,15.96,3.04,10.94-1.01,15.97-3.04c5.03-2.02,9.46-4.87,13.32-8.52,3.85-3.66,6.88-7.97,9.11-12.93,2.22-4.96,3.32-10.38,3.32-16.25s-1.1-11.29-3.32-16.26c-2.23-4.96-5.26-9.27-9.11-12.92-3.85-3.66-8.29-6.49-13.32-8.53-5.03-2.02-10.35-3.04-15.97-3.04s-10.93,1.02-15.96,3.04c-5.03,2.03-9.44,4.87-13.23,8.53-3.79,3.65-6.79,7.96-9.01,12.92-2.22,4.97-3.33,10.38-3.33,16.26Z"/><path class="cls-1" d="m1056.09,4.12h57.2c13.58,0,23.9,3.26,30.95,9.79,7.05,6.53,10.58,15.93,10.58,28.21,0,7.44-1.34,13.61-4.01,18.51-2.67,4.9-6.76,9.05-12.24,12.44,5.48,1.05,10.15,2.64,14,4.8,3.85,2.15,6.98,4.8,9.4,7.93,2.41,3.14,4.14,6.66,5.19,10.58,1.05,3.92,1.57,8.1,1.57,12.54,0,6.92-1.21,13.06-3.63,18.4-2.41,5.36-5.81,9.86-10.18,13.52-4.38,3.65-9.7,6.39-15.97,8.22s-13.32,2.74-21.15,2.74h-61.7V4.12Zm38.4,57.98h7.05c12.01,0,18.02-4.77,18.02-14.31s-6.01-14.3-18.02-14.3h-7.05v28.6Zm0,59.93h8.42c9.67,0,16.58-1.24,20.77-3.72,4.18-2.48,6.27-6.46,6.27-11.94s-2.09-9.47-6.27-11.95c-4.18-2.48-11.1-3.72-20.77-3.72h-8.42v31.34Z"/><path class="cls-1" d="m1291.92,126.14h-54.84l-8.81,25.66h-40.93l56.21-147.68h41.91l56.22,147.68h-40.93l-8.81-25.66Zm-10.19-29.18l-17.23-49.17-17.24,49.17h34.47Z"/><path class="cls-1" d="m165.69,255.86c-7.06-5.73-14.1-9.97-21.15-12.73-7.06-2.75-13.88-4.13-20.5-4.13-8.38,0-15.2,1.98-20.49,5.95-5.29,3.97-7.94,9.15-7.94,15.54,0,4.41,1.32,8.05,3.97,10.91,2.64,2.87,6.11,5.35,10.41,7.44,4.29,2.1,9.14,3.91,14.54,5.46s10.75,3.2,16.03,4.95c21.15,7.06,36.63,16.48,46.43,28.26,9.8,11.79,14.71,27.16,14.71,46.1,0,12.79-2.15,24.35-6.44,34.71-4.29,10.36-10.58,19.22-18.84,26.6-8.26,7.39-18.4,13.12-30.41,17.19-12.01,4.07-25.62,6.12-40.82,6.12-31.51,0-60.71-9.36-87.59-28.1l27.77-52.22c9.69,8.6,19.28,14.99,28.75,19.16,9.47,4.19,18.84,6.28,28.1,6.28,10.58,0,18.46-2.42,23.63-7.27,5.17-4.84,7.77-10.36,7.77-16.52,0-3.75-.67-6.99-1.98-9.75-1.32-2.76-3.53-5.29-6.61-7.61-3.09-2.31-7.11-4.46-12.06-6.44-4.96-1.98-10.97-4.18-18.02-6.61-8.38-2.64-16.58-5.56-24.62-8.76-8.05-3.19-15.21-7.44-21.49-12.73-6.28-5.29-11.34-11.94-15.2-19.99-3.85-8.05-5.79-18.24-5.79-30.58s2.03-23.52,6.12-33.55c4.07-10.03,9.8-18.62,17.19-25.79,7.38-7.16,16.41-12.73,27.1-16.69s22.64-5.95,35.86-5.95c12.33,0,25.23,1.7,38.67,5.12,13.44,3.42,26.32,8.43,38.66,15.04l-25.78,50.57Z"/><path class="cls-1" d="m417.23,246.94h-77.02v41.64h72.72v54.87h-72.72v42.97h77.02v54.87h-141.8v-249.21h141.8v54.87Z"/><path class="cls-1" d="m561.65,192.07v194.35h77.68v54.87h-142.45v-249.21h64.78Z"/><path class="cls-1" d="m770.55,192.07v194.35h77.68v54.87h-142.45v-249.21h64.78Z"/><path class="cls-1" d="m1056.45,246.94h-77.02v41.64h72.72v54.87h-72.72v42.97h77.02v54.87h-141.8v-249.21h141.8v54.87Z"/><path class="cls-1" d="m1343.34,441.28h-80.64l-61.81-95.85v95.85h-64.78v-249.21h100.8c13.88,0,26,2.03,36.36,6.12,10.36,4.07,18.89,9.64,25.62,16.68,6.71,7.06,11.78,15.21,15.2,24.46,3.42,9.25,5.13,19.17,5.13,29.75,0,18.95-4.58,34.32-13.71,46.1-9.15,11.79-22.65,19.79-40.5,23.96l78.33,102.14Zm-142.45-137.83h12.23c12.78,0,22.59-2.64,29.42-7.93,6.82-5.29,10.24-12.89,10.24-22.81s-3.42-17.52-10.24-22.81c-6.83-5.29-16.64-7.93-29.42-7.93h-12.23v61.47Z"/></svg>