<?xml version="1.0" encoding="UTF-8"?><svg id="_レイヤー_1" xmlns="http://www.w3.org/2000/svg" viewBox="0 0 495.28 69.84"><defs><style>.cls-1{isolation:isolate;}.cls-2{fill:#3b3b3b;stroke-width:0px;}</style></defs><g id="oomidasi" class="cls-1"><g class="cls-1"><path class="cls-2" d="M45.76,41.6c.64,2.56,1.04,5.28,1.04,8.08,0,7.92-4.4,20.16-23.28,20.16-15.2,0-23.52-8-23.52-19.52,0-10.64,8.56-19.2,24.16-19.2,3.76,0,7.44.4,11.12.88L31.6,1.76h7.68l1.12,8.88h28v7.04h-27.2l1.84,15.84c11.76,2.8,21.84,7.36,27.04,10v9.04c-5.92-3.36-14.4-7.84-24.32-10.96ZM37.36,39.44c-4.32-.88-8.72-1.44-13.36-1.44-10.08,0-16,5.04-16,12.32,0,6.88,5.12,12,15.44,12,13.84,0,15.52-8.8,15.52-13.12s-.56-7.12-1.6-9.76Z"/><path class="cls-2" d="M101.68,69.12h-18v-7.2h17.76c25.28,0,32.48-8,32.48-18.64,0-9.44-6.08-14.48-18.8-14.48-9.6,0-17.36,2.32-25.2,7.68l-16.08,10.96v-8.24l44.64-29.36h-41.28V2.72h54.96v5.92l-24.4,15.36c2.96-.64,6.32-1.28,10.56-1.28,15.12,0,23.68,8.08,23.68,20.48,0,15.12-10.8,25.92-40.32,25.92Z"/><path class="cls-2" d="M177.2,67.84c-21.76,0-29.6-5.04-29.6-17.36,0-5.6,2.08-11.92,5.92-16.24h7.92c-4.4,4.96-6.32,10.08-6.32,15.12,0,9.04,5.92,11.44,22.64,11.44h33.6v7.04h-34.16ZM197.68,22.4h-8.96l10.4-9.44h-47.36v-6.96h57.36v5.68l-11.44,10.72Z"/><path class="cls-2" d="M220,69.04c-1.2-8.64-2-19.68-2-30.64,0-12.24.8-23.44,1.92-36.56h7.36c-1.44,13.04-1.84,23.84-1.84,37.28,0,11.36.8,21.12,2.08,29.92h-7.52ZM276.64,49.68v.16c0,12.8-7.12,19.36-21.76,19.36-12.88,0-19.92-6-19.92-15.92s7.44-15.76,20-15.76c4.8,0,9.84.8,14.64,2v-22.64h-33.84v-7.12h34.56v6.08h6.32v25.92c3.12,1.12,6.08,2.4,8.72,3.84v9.12c-2.96-2-5.84-3.68-8.72-5.04ZM269.6,46.8c-5.68-1.84-10.8-2.56-15.04-2.56-7.44,0-12.48,2.88-12.48,9.2s5.2,8.72,12.24,8.72c10.32,0,15.28-3.92,15.28-13.68v-1.68ZM273.68,12.4V0h4.48v12.4h-4.48ZM282.16,12.4V0h4.48v12.4h-4.48Z"/><path class="cls-2" d="M326.96,43.2h-1.68v-7.2h1.44c13.92,0,20.8-4.8,22.4-15.92v-2.88h-44.56v28.88c0,12.24,5.52,15.76,18.48,15.76h31.68v7.2h-32.08c-16.8,0-25.28-5.92-25.28-22.56v-29.28h-8v-7.2h8V2.72h7.2v7.28h52.24v9.52c0,15.04-11.68,23.68-29.84,23.68Z"/><path class="cls-2" d="M361.76,11.12v-7.12h66.88v7.12h-66.88ZM382.32,69.36h-15.52v-7.12h15.2c25.36,0,38.8-5.76,38.8-28.4v-4.56h-58.88v-7.04h66.72v11.12c0,27.28-16.4,36-46.32,36Z"/><path class="cls-2" d="M432.96,40v-7.6h62.32v7.6h-62.32Z"/></g></g></svg>