<?xml version="1.0" encoding="UTF-8"?><svg id="_レイヤー_1" xmlns="http://www.w3.org/2000/svg" viewBox="0 0 1263.07 170.2"><defs><style>.cls-1{stroke:#3b3b3b;stroke-miterlimit:10;stroke-width:.99px;}.cls-1,.cls-2{fill:#3b3b3b;}.cls-3{isolation:isolate;}.cls-2{stroke-width:0px;}</style></defs><g id="_喜ばせる_seller_" class="cls-3"><g class="cls-3"><path class="cls-1" d="m.5.5h31.57v3.83H4.32v83.24H.5V.5Z"/><path class="cls-2" d="m180.48,114.95H58.69c-5.71,0-14.69.65-20.9,1.96l-3.92-7.02c12.25.98,24.16,1.14,27.1,1.14h54.04c3.1-6.37,5.06-12.25,7.18-19.92h-37.23c10.94,5.55,12.41,9.47,12.41,12.9,0,3.1-1.31,5.55-4.9,5.55-4.25,0-4.57-1.96-6.2-7.84-1.96-7.67-4.08-9.63-5.06-10.61h-7.84c-.16,3.1-.33,5.71-5.88,5.71-3.1,0-3.43-1.47-3.43-3.1,0-1.31.16-2.78.16-3.27.16-2.29.49-5.71.49-11.75,0-4.9,0-12.9-1.14-17.31l10.61,4.25h65.31l2.78-3.92c.82-1.14,1.14-1.63,2.12-1.63.65,0,1.31.49,2.12.98l5.55,4.25c.82.65,1.31,1.63,1.31,2.45,0,1.31-.33,1.63-4.08,4.9,0,2.78.82,16,.82,16.82,0,4.73-5.71,5.22-6.53,5.22-2.78,0-2.78-1.47-2.61-3.59h-13.55l6.86,3.75c.16.16.82.49.82,1.14,0,1.31-2.61,1.8-5.71,2.45-1.47,1.8-8,8.49-12.08,12.57h43.59l6.2-8.82c1.31-1.8,1.47-2.12,2.29-2.12,1.14,0,2.29,1.31,3.1,2.12l8.82,8.49c.98.98,1.63,1.47,1.63,2.61,0,1.47-1.47,1.63-2.45,1.63Zm-6.69-77.88h-61.55v12.57h32.82l3.75-4.57c.82-1.14,1.47-2.12,2.29-2.12.65,0,1.31.33,3.1,1.63l6.69,4.73c.65.33,1.63,1.31,1.63,2.45,0,1.47-1.31,1.8-2.45,1.8h-81.96c-5.71,0-14.86.65-21.06,1.8l-3.75-7.02c12.25.98,24,1.31,27.1,1.31h23.02v-12.57h-39.67c-5.88,0-14.86.65-21.06,1.8l-3.92-7.02c12.25.98,24.16,1.31,27.27,1.31h37.39c-.33-10.78-.49-13.06-2.29-20.25l15.18,4.9c.65.33,1.47.98,1.47,1.63,0,1.14-.33,1.47-5.39,5.71,0,2.45,0,2.94-.16,8h43.43l6.04-6.86c1.63-1.8,1.8-1.96,2.45-1.96.98,0,2.61,1.47,3.1,1.8l7.35,6.69c.98.82,1.63,1.47,1.63,2.45,0,1.47-1.47,1.8-2.45,1.8Zm-22.04,98.61c0,3.43.98,18.78.98,21.88,0,1.63-.33,2.61-.98,3.43-1.31,1.14-4.25,2.61-6.04,2.61-1.96,0-2.78-.82-2.61-7.18h-71.19c-.16.82-.16,4.25-.33,5.06-.49,3.1-4.08,3.59-6.69,3.59-.98,0-2.45,0-2.45-2.94,0-.82.65-19.27.65-22.69,0-2.61-.16-7.67-.65-15.84l10.94,5.39h68.9l3.76-3.59c.33-.33,1.47-1.31,2.45-1.31.82,0,1.31.49,2.12,1.14l4.9,3.75c1.14.82,1.63,1.47,1.63,2.29,0,1.47-2.29,2.61-5.39,4.41Zm-8.65-2.78h-71.19v19.59h71.19v-19.59Zm-1.96-63.35h-67.59v17.63h67.59v-17.63Z"/><path class="cls-2" d="m221.47,92.75c-1.14,5.55-6.37,29.88-7.35,34.94-.82,3.92-1.31,7.35-1.31,9.47,0,1.8.98,10.12.98,11.92,0,2.61-1.8,3.92-3.92,3.92-7.02,0-12.9-18.12-12.9-39.51,0-13.55,1.47-24.98,3.27-33.96,1.14-6.04,5.55-28.08,5.55-32.98,0-8-3.27-10.61-6.37-13.06,1.14-.49,1.96-.65,2.94-.65,8,0,14.69,8.33,14.69,12.9,0,1.63-.49,2.94-1.63,5.71-7.51,18.29-11.92,39.51-11.92,56.82,0,2.45.49,20.25,3.27,20.25.65,0,.98-.65,1.14-1.14,3.27-9.8,8.82-25.47,12.25-35.27l1.31.65Zm85.39-35.1c2.94-.82,3.27-.98,3.92-.98,3.27,0,7.84,1.8,7.84,4.9,0,1.96-1.8,2.78-2.94,3.27-1.63.49-10.94,2.45-26.12,4.25.33,8.33,2.45,45.06,2.78,52.57,11.92,4.41,27.92,11.27,27.92,20.08,0,1.96-1.47,3.43-3.59,3.43s-3.76-.16-11.76-6.2c-5.88-4.57-9.96-6.53-13.23-8-2.61,7.51-6.37,17.96-25.96,17.96-13.55,0-25.31-6.69-25.31-16,0-3.43,2.12-15.35,27.1-15.35,8.65,0,13.39.98,17.47,1.96v-4.08c0-15.18-1.47-34.45-1.8-45.55-3.27.33-13.06,1.31-17.47,1.31-8,0-21.55-2.61-25.63-11.59,6.37,3.75,14.2,4.9,17.96,4.9,4.41,0,13.88-.65,24.82-1.96-.82-24.49-.82-25.96-1.47-28.74-.98-3.59-3.92-4.41-10.61-6.2,6.69-2.94,7.35-3.27,8.98-3.27,2.78,0,12.9,3.59,12.9,8.49,0,1.63-.16,1.8-1.14,5.22-2.45,8.16-2.29,18.94-2.12,23.51,4.25-.65,9.31-1.63,17.47-3.92Zm-41.8,65.96c-9.47,0-19.1,3.92-19.1,9.96s9.63,8,17.96,8c16.82,0,19.1-9.96,19.92-14.2-5.39-2.78-11.76-3.76-18.78-3.76Zm56.82-74.29c0,.65-.33,3.59-2.94,3.59-1.63,0-2.94-1.31-5.55-4.9-2.61-3.75-11.43-12.57-17.47-18.61,10.12.98,25.96,9.14,25.96,19.92Zm15.35-10.78c0,1.96-.82,3.92-3.1,3.92-2.12,0-3.59-1.8-6.86-6.04-2.45-3.1-8.33-9.47-19.43-17.14,12.73-.82,29.39,9.8,29.39,19.27Z"/><path class="cls-2" d="m401.23,103.03l1.47.33c16.82,3.75,17.14,4.57,19.1,4.57,4.73,0,6.2-3.43,6.86-5.55,1.14-4.08,2.29-22.21,2.61-27.76-16.33,2.61-31.84,6.53-44.41,9.63-.82,16.33-.82,18.12-.82,21.39,0,29.88,7.18,37.88,35.1,37.88,10.78,0,22.53-1.8,24.98-2.29,4.24-.98,4.73-.82,6.04-.82,4.24,0,8.98,2.78,8.98,6.2,0,2.61-2.12,3.43-2.94,3.75-3.75.98-17.8,1.14-22.69,1.14-16.82,0-44.41,0-52.74-21.71-3.43-8.82-4.08-18.12-4.08-43.27-14.53,4.25-17.47,6.04-22.04,8.82-3.43,2.12-4.25,2.61-6.37,2.61-2.78,0-15.18-5.71-14.37-17.31,4.73,4.41,9.47,6.86,13.55,6.86,1.31,0,2.94-.16,7.51-1.47,10.45-3.1,18.45-5.06,21.71-5.88,0-5.39,0-20.9-1.8-24.49-1.47-3.27-5.22-5.55-8.98-7.35,1.47-1.14,2.12-1.47,5.39-1.47,8,0,15.51,4.9,15.51,8,0,.49-.16,2.45-.65,4.41-.65,2.94-.82,16.16-.98,18.94,14.69-3.59,29.39-6.69,44.25-9.14.16-7.18.49-27.1-1.96-33.31-1.96-5.22-9.63-7.35-12.57-8.16,1.96-.82,5.06-2.12,9.63-2.12s14.69,3.27,14.69,9.31c0,.49-.82,5.22-.98,5.55-.82,4.9-1.14,21.39-1.31,27.59,3.92-.65,21.71-3.43,25.31-4.25,2.78-.49,7.67-1.63,9.31-1.63,2.78,0,9.8.98,9.8,5.06,0,4.41-4.08,4.41-6.2,4.41-1.47,0-7.84-.16-9.14-.16-5.88,0-15.35.65-29.23,2.29-.16,9.96-1.47,29.71-4.9,37.88-3.43,8-8.33,8.98-9.8,8.98s-1.8-.33-4.9-3.43c-5.88-5.88-17.63-13.06-18.12-13.39l.16-.65Z"/><path class="cls-2" d="m519.6,37.89c3.43,0,20.25-3.75,29.88-6.69,2.78-.82,7.18-2.12,8.49-2.12,4.57,0,10.78,6.37,10.78,10.45,0,1.96-.33,2.12-3.76,4.57-3.43,2.61-4.41,3.27-7.18,6.69-4.73,5.88-25.8,31.84-30.04,37.22-2.12,2.78-4.57,5.88-8.49,11.43,8.16-5.06,22.69-13.39,41.63-13.39,23.67,0,35.59,13.88,35.59,31.02,0,21.71-19.76,37.06-45.23,37.06-14.04,0-31.35-5.39-31.35-17.8,0-10.94,10.45-13.39,16.65-13.39,13.39,0,21.06,8.65,25.31,22.37,16.33-2.45,24.82-17.14,24.82-29.39,0-16.65-12.08-25.47-27.92-25.47-30.86,0-54.53,29.55-56.16,32.33-4.08,6.86-6.04,10.12-9.63,10.12-2.12,0-3.59-1.63-3.59-5.39,0-5.39,1.47-6.86,5.22-10.45,25.47-24.49,59.27-71.02,59.27-77.88,0-2.12-1.47-2.29-2.29-2.29-2.61,0-18.61,4.57-24.65,8.33-1.8,1.14-5.22,3.27-6.37,3.27-4.57,0-13.39-7.02-13.39-14.53,0-1.63.65-2.45,1.63-3.27,1.96,4.9,5.71,7.18,10.78,7.18Zm14.04,91.27c-4.08,0-8,2.29-8,6.69,0,8.33,17.47,11.92,22.04,11.92,1.14,0,2.94,0,5.55-.98-1.8-9.96-12.41-17.63-19.59-17.63Z"/><path class="cls-1" d="m637.62,169.71h-31.57v-3.83h27.75v-83.24h3.83v87.06Z"/><path class="cls-2" d="m715.65,138.83l-4.46-4.46,29.24-29.24-29.24-29.24,4.46-4.46,29.24,29.37,29.24-29.37,4.46,4.46-29.24,29.24,29.24,29.24-4.46,4.46-29.24-29.24-29.24,29.24Z"/><path class="cls-1" d="m853.88.5h31.57v3.83h-27.75v83.24h-3.83V.5Z"/><path class="cls-2" d="m923.66,156.09c-3.1,0-6.53-.49-12.41-2.61-1.14-.49-3.76-1.31-5.22-1.31-3.27,0-7.67,2.45-10.45,3.92l-9.8-26.29,4.41-1.96c3.92,6.86,6.04,9.63,10.29,13.39,7.18,6.21,14.86,9.14,21.71,9.14,9.14,0,16.33-6.04,16.33-15.51,0-10.45-8.65-12.9-24-16.98-16.16-4.41-26.78-9.14-26.78-22.69,0-9.14,5.55-22.53,23.02-22.53,3.92,0,6.37.49,10.61,1.96,3.59,1.14,4.57,1.14,5.39,1.14,2.78,0,5.39-1.31,7.84-3.1l9.96,23.67-3.27,1.47c-6.04-7.67-16.33-20.74-29.71-20.74-7.84,0-15.18,6.2-15.18,15.35,0,9.63,8.98,11.76,24,15.51,12.08,2.94,27.76,7.67,27.76,24.65,0,15.02-11.59,23.51-24.49,23.51Z"/><path class="cls-2" d="m988.15,156.09c-30.53,0-36.41-27.43-36.41-41.63,0-20.9,11.1-41.8,34.78-41.8,14.37,0,22.04,7.84,26.29,14.37,6.04,9.31,6.69,17.63,7.18,23.18h-56.49c-1.14,39.02,24.98,39.67,28.08,39.67,14.2,0,21.71-9.96,25.47-15.18l3.76,3.1c-6.04,7.84-14.04,18.29-32.65,18.29Zm-1.96-78.53c-18.45,0-21.22,19.76-22.37,27.27h43.59c-1.14-21.06-11.27-27.27-21.22-27.27Z"/><path class="cls-2" d="m1022.92,152.99v-5.22h2.78c7.18,0,9.31-4.73,9.31-11.92V47.36c0-5.06-1.96-7.51-6.04-7.51-.65,0-2.61.16-4.74.82l-.82-3.59,21.55-6.2v104.98c0,6.04,1.8,11.92,9.8,11.92h2.29v5.22h-34.12Z"/><path class="cls-2" d="m1057.05,152.99v-5.22h2.78c7.18,0,9.31-4.73,9.31-11.92V47.36c0-5.06-1.96-7.51-6.04-7.51-.65,0-2.61.16-4.74.82l-.82-3.59,21.55-6.2v104.98c0,6.04,1.8,11.92,9.8,11.92h2.29v5.22h-34.12Z"/><path class="cls-2" d="m1129.86,156.09c-30.53,0-36.41-27.43-36.41-41.63,0-20.9,11.1-41.8,34.78-41.8,14.37,0,22.04,7.84,26.29,14.37,6.04,9.31,6.69,17.63,7.18,23.18h-56.49c-1.14,39.02,24.98,39.67,28.08,39.67,14.2,0,21.71-9.96,25.47-15.18l3.76,3.1c-6.04,7.84-14.04,18.29-32.65,18.29Zm-1.96-78.53c-18.45,0-21.22,19.76-22.37,27.27h43.59c-1.14-21.06-11.27-27.27-21.22-27.27Z"/><path class="cls-2" d="m1222.11,88.5c-2.29,0-3.92-.98-4.74-1.8-1.8-1.63-2.29-2.29-4.9-2.29-10.45,0-16.49,8.98-22.37,19.92v31.51c0,8.16,5.06,11.92,11.43,11.92h5.39v5.22h-41.47v-5.22h3.75c6.2,0,11.43-3.59,11.43-11.92v-44.9c0-4.41-1.31-8.82-6.69-8.82-2.29,0-5.22.82-7.02,1.31l-1.14-3.59,24.33-8v23.02c6.53-8.33,17.63-22.2,30.04-22.2,3.76,0,9.47,2.45,9.47,8.33,0,4.25-3.43,7.51-7.51,7.51Z"/><path class="cls-1" d="m1262.58,169.71h-31.57v-3.83h27.75v-83.24h3.83v87.06Z"/></g></g></svg>